<?xml version="1.0" encoding="iso-8859-1"?>
<!-- Generator: Adobe Illustrator 19.0.0, SVG Export Plug-In . SVG Version: 6.00 Build 0)  -->
<svg version="1.1" id="Capa_1" xmlns="http://www.w3.org/2000/svg" xmlns:xlink="http://www.w3.org/1999/xlink" x="0px" y="0px"
	 viewBox="0 0 469.335 469.335" style="enable-background:new 0 0 469.335 469.335;" xml:space="preserve">
<path style="fill:#19E77C;" d="M355.346,48.603v-0.001c-66.65-64.801-174.708-64.801-241.358,0v0.001
	c-66.65,64.801-66.65,169.865,0,234.665l48.75,47.398c31.846,30.741,49.88,73.072,49.987,117.335
	c0,11.781,9.823,21.333,21.942,21.333c12.119,0,21.942-9.552,21.942-21.333c0.108-44.262,18.142-86.593,49.988-117.335l48.75-47.398
	C421.996,218.468,421.996,113.404,355.346,48.603L355.346,48.603z M234.667,234.668c-35.346,0-64-28.654-64-64s28.654-64,64-64
	s64,28.654,64,64S270.013,234.668,234.667,234.668z"/>
<g>
	<path style="fill:#00CB6E;" d="M234.667,0.001c45.025-0.156,88.329,17.284,120.68,48.601v0.001
		c66.65,64.801,66.65,169.865,0,234.665l-48.75,47.398l-0.088,0.086l-0.028,0.027l-0.06,0.058l-0.033,0.032l-0.056,0.055
		l-0.034,0.033l-0.058,0.056l-0.028,0.028l-0.063,0.062l-0.027,0.027c-0.059,0.057-0.115,0.112-0.173,0.17l-0.03,0.029l-0.061,0.06
		l-0.028,0.028l-0.057,0.056l-0.036,0.036l-0.052,0.052l-0.036,0.036l-0.054,0.053l-0.032,0.031l-0.071,0.07l-0.017,0.016
		l-0.086,0.085l-0.032,0.032l-0.053,0.053l-0.036,0.036l-0.053,0.053l-0.034,0.034l-0.057,0.057l-0.028,0.028l-0.06,0.059
		l-0.031,0.031l-0.069,0.069l-0.016,0.016l-0.086,0.086l-0.028,0.028l-0.059,0.059l-0.037,0.037l-0.047,0.047l-0.041,0.041
		l-0.048,0.048l-0.039,0.039l-0.049,0.049l-0.036,0.036l-0.06,0.061l-0.026,0.026l-0.084,0.084l-0.032,0.032l-0.054,0.055
		l-0.039,0.039l-0.046,0.046l-0.044,0.044l-0.042,0.043l-0.04,0.04l-0.051,0.052l-0.034,0.035l-0.063,0.064l-0.022,0.022
		l-0.085,0.087l-0.018,0.018l-0.07,0.071l-0.025,0.025l-0.059,0.061l-0.033,0.034l-0.052,0.054l-0.037,0.038l-0.046,0.047
		l-0.039,0.04l-0.054,0.056l-0.03,0.03l-0.083,0.086l-0.027,0.028l-0.057,0.059l-0.036,0.038l-0.049,0.051l-0.036,0.038
		l-0.049,0.051l-0.036,0.038l-0.048,0.049l-0.039,0.041l-0.046,0.048l-0.038,0.039l-0.061,0.063l-0.048,0.05l-0.057,0.059
		l-0.034,0.036l-0.05,0.052l-0.037,0.038l-0.048,0.051l-0.037,0.039l-0.048,0.051l-0.035,0.036l-0.055,0.057l-0.03,0.032
		l-0.072,0.075l-0.019,0.02l-0.076,0.08l-0.027,0.028l-0.058,0.061l-0.033,0.035l-0.05,0.053l-0.034,0.037l-0.05,0.053l-0.036,0.038
		l-0.048,0.051l-0.035,0.037l-0.052,0.055l-0.052,0.055l-0.062,0.066l-0.025,0.027l-0.058,0.061l-0.033,0.035l-0.052,0.056
		l-0.033,0.035l-0.052,0.055l-0.031,0.033l-0.06,0.064l-0.023,0.025l-0.082,0.087l-0.002,0.002l-0.085,0.091l-0.018,0.02
		l-0.068,0.073l-0.02,0.021l-0.065,0.07l-0.023,0.024l-0.059,0.063l-0.03,0.033l-0.056,0.06l-0.026,0.028l-0.073,0.079l-0.01,0.011
		l-0.085,0.092l-0.015,0.016l-0.064,0.069l-0.035,0.038l-0.05,0.054l-0.032,0.034l-0.052,0.057l-0.03,0.033l-0.059,0.064
		l-0.024,0.026l-0.071,0.077l-0.011,0.012l-0.084,0.091l-0.017,0.019l-0.064,0.07l-0.03,0.033l-0.053,0.058l-0.029,0.032
		l-0.054,0.059l-0.031,0.034l-0.054,0.06l-0.027,0.029l-0.062,0.068l-0.021,0.024c-0.055,0.06-0.108,0.119-0.163,0.179l-0.031,0.035
		l-0.05,0.055l-0.037,0.041l-0.042,0.047l-0.039,0.043l-0.047,0.052l-0.033,0.036l-0.053,0.059l-0.029,0.032l-0.08,0.089
		l-0.015,0.016l-0.068,0.076l-0.024,0.026l-0.059,0.066l-0.026,0.029l-0.055,0.061l-0.032,0.036l-0.049,0.055l-0.031,0.034
		l-0.058,0.064l-0.024,0.027l-0.162,0.181l-0.025,0.028l-0.058,0.065l-0.024,0.028l-0.057,0.064l-0.027,0.03l-0.058,0.065
		l-0.024,0.028l-0.059,0.066l-0.023,0.026l-0.163,0.185l-0.017,0.019l-0.063,0.072l-0.025,0.028l-0.055,0.063l-0.03,0.034
		l-0.052,0.059l-0.029,0.033l-0.053,0.061l-0.028,0.032c-0.054,0.061-0.105,0.12-0.159,0.181l-0.027,0.031l-0.054,0.062l-0.03,0.035
		l-0.049,0.056l-0.032,0.036l-0.053,0.061l-0.026,0.03l-0.058,0.066l-0.023,0.026l-0.066,0.076l-0.015,0.018
		c-0.026,0.03-0.054,0.062-0.08,0.092l-0.017,0.019l-0.065,0.076l-0.018,0.021l-0.061,0.071l-0.025,0.029l-0.055,0.064l-0.025,0.029
		l-0.061,0.071l-0.019,0.022c-0.055,0.063-0.107,0.124-0.161,0.188l-0.013,0.015l-0.069,0.081l-0.016,0.019l-0.063,0.074
		l-0.021,0.025l-0.062,0.073l-0.018,0.021l-0.065,0.076l-0.016,0.019c-0.081,0.095-0.162,0.19-0.243,0.286l-0.014,0.017
		l-0.066,0.078l-0.018,0.022l-0.064,0.075l-0.016,0.019l-0.069,0.081l-0.011,0.014c-0.082,0.097-0.163,0.194-0.245,0.291
		l-0.004,0.005l-0.073,0.087L295,343.147l-0.066,0.079l-0.012,0.015l-0.07,0.084l-0.01,0.012c-0.082,0.098-0.163,0.196-0.245,0.294
		v0l-0.077,0.092l-0.016,0.019l-0.063,0.075l-0.019,0.022l-0.064,0.077l-0.015,0.018c-0.081,0.098-0.16,0.193-0.241,0.291
		l-0.005,0.006l-0.073,0.089l-0.014,0.016l-0.068,0.083l-0.011,0.014l-0.067,0.082l-0.014,0.017l-0.076,0.093l-0.001,0.001
		c-0.08,0.098-0.16,0.196-0.241,0.295l-0.011,0.014l-0.068,0.083l-0.012,0.015l-0.066,0.081l-0.015,0.018
		c-0.105,0.129-0.211,0.26-0.315,0.389l-0.012,0.014c-0.024,0.031-0.046,0.057-0.07,0.087l-0.007,0.008l-0.073,0.09l-0.008,0.01
		l-0.076,0.095l-0.002,0.003c-0.08,0.099-0.162,0.201-0.241,0.3l-0.002,0.002l-0.075,0.094l-0.009,0.012l-0.068,0.086l-0.012,0.015
		l-0.071,0.089l-0.007,0.008c-0.079,0.099-0.158,0.199-0.237,0.298l-0.006,0.007l-0.073,0.092l-0.007,0.01l-0.068,0.086
		l-0.012,0.016c-0.023,0.029-0.049,0.062-0.072,0.091l-0.004,0.005c-0.106,0.134-0.211,0.267-0.316,0.402l-0.005,0.006l-0.073,0.093
		l-0.007,0.01c-0.104,0.133-0.21,0.269-0.313,0.402l-0.001,0.002l-0.077,0.1l-0.001,0.002l-0.074,0.095l-0.009,0.011l-0.073,0.094
		l-0.003,0.003c-0.104,0.135-0.209,0.27-0.313,0.406l-0.002,0.002l-0.076,0.098l-0.003,0.004c-0.155,0.201-0.312,0.407-0.465,0.609
		l-0.005,0.006c-0.155,0.204-0.307,0.405-0.461,0.609l-0.005,0.007c-0.154,0.204-0.306,0.407-0.459,0.612l-0.003,0.005l-0.074,0.1
		l-0.001,0.002c-0.128,0.172-0.255,0.343-0.382,0.515l-0.002,0.002c-17.005,22.964-27.685,49.989-30.972,78.374
		c-0.617,5.381-5.168,9.445-10.584,9.452c-0.411,0-0.821-0.024-1.229-0.07c-5.853-0.671-10.053-5.96-9.382-11.812c0,0,0,0,0,0
		c5.013-42.516,24.529-82.004,55.26-111.808l48.75-47.398c28.068-27.289,43.525-63.526,43.525-102.037
		c0-38.511-15.457-74.749-43.525-102.039c-28.231-27.447-65.808-42.563-105.809-42.563c-18.252-0.025-36.363,3.208-53.479,9.548
		c-5.522,2.053-11.662-0.76-13.715-6.282c-2.053-5.522,0.76-11.662,6.282-13.715c0.007-0.002,0.013-0.005,0.02-0.007
		c14.765-5.463,30.2-8.907,45.887-10.239l0.013-0.001l0.111-0.01l0.008-0.001l0.112-0.009l0.01-0.001l0.109-0.009l0.015-0.001
		l0.105-0.009l0.019-0.002l0.105-0.009l0.013-0.001l0.109-0.009l0.013-0.001l0.108-0.009l0.015-0.001l0.106-0.008l0.016-0.001
		c0.314-0.025,0.629-0.049,0.944-0.073l0.012-0.001l0.109-0.008l0.012-0.001l0.109-0.008l0.013-0.001l0.106-0.008l0.018-0.001
		l0.097-0.007l0.03-0.002l0.094-0.007l0.026-0.002l0.097-0.007l0.024-0.002l0.099-0.007l0.024-0.002l0.095-0.007l0.03-0.002
		l0.094-0.006l0.027-0.002l0.094-0.006l0.029-0.002l0.095-0.006l0.025-0.002l0.096-0.006l0.031-0.002
		c0.228-0.015,0.456-0.03,0.684-0.044l0.018-0.001l0.106-0.007L223.9,0.33l0.092-0.006l0.035-0.002l0.085-0.005l0.037-0.002
		l0.087-0.005l0.036-0.002l0.086-0.005l0.036-0.002l0.084-0.005l0.043-0.002l0.078-0.004l0.046-0.003l0.077-0.004l0.048-0.003
		l0.077-0.004l0.045-0.002l0.078-0.004l0.047-0.003l0.077-0.004l0.042-0.002l0.082-0.004l0.037-0.002l0.087-0.005l0.027-0.001
		l0.097-0.005l0.003,0c0.154-0.008,0.31-0.016,0.464-0.024l0.019-0.001l0.098-0.005l0.025-0.001l0.089-0.004l0.036-0.002
		l0.084-0.004l0.041-0.002l0.08-0.004l0.043-0.002l0.08-0.004l0.046-0.002l0.073-0.003l0.054-0.002l0.068-0.003l0.058-0.003
		l0.065-0.003l0.058-0.003l0.067-0.003l0.058-0.003l0.064-0.003l0.06-0.003l0.065-0.003l0.058-0.002l0.067-0.003l0.052-0.002
		l0.075-0.003l0.04-0.002l0.083-0.003l0.042-0.002l0.082-0.003l0.048-0.002l0.074-0.003l0.01,0l0.183-0.007l0.053-0.002l0.068-0.003
		l0.055-0.002l0.066-0.002l0.06-0.002l0.067-0.002l0.055-0.002l0.069-0.002l0.058-0.002l0.061-0.002l0.065-0.002l0.057-0.002
		l0.069-0.002l0.057-0.002l0.064-0.002l0.062-0.002l0.065-0.002l0.058-0.002l0.069-0.002l0.054-0.002l0.072-0.002l0.053-0.002
		l0.065-0.002l0.063-0.002l0.062-0.002l0.061-0.002l0.069-0.002l0.055-0.002l0.071-0.002l0.055-0.001l0.066-0.002l0.058-0.002
		l0.123-0.003l0.022-0.001l0.104-0.003l0.039-0.001l0.085-0.002l0.056-0.001l0.066-0.002l0.063-0.001l0.063-0.001l0.054-0.001
		l0.074-0.002l0.049-0.001l0.076-0.002l0.053-0.001l0.069-0.001l0.061-0.001l0.064-0.001l0.058-0.001l0.068-0.001l0.057-0.001
		l0.066-0.001l0.06-0.001l0.063-0.001l0.063-0.001l0.067-0.001l0.053-0.001l0.076-0.001l0.051-0.001l0.072-0.001l0.053-0.001
		l0.072-0.001l0.053-0.001l0.096-0.001l0.025,0l0.11-0.001l0.017,0c0.083-0.001,0.166-0.002,0.249-0.003l0.044-0.001l0.085-0.001
		l0.036,0l0.086-0.001l0.049,0l0.075-0.001l0.054,0l0.07-0.001l0.054,0l0.074-0.001l0.05,0l0.074-0.001l0.052,0l0.073,0l0.053,0
		l0.069,0l0.057,0l0.07,0l0.054,0l0.068,0l0.059,0l0.067,0l0.056,0l0.069,0l0.057,0l0.069,0l0.055,0l0.076,0l0.047,0
		c0.029,0,0.06,0,0.089,0l0.036,0L234.667,0.001z"/>
	<path style="fill:#00CB6E;" d="M159.292,246.143c41.664,41.648,109.202,41.634,150.849-0.03s41.634-109.202-0.03-150.849
		C296.843,82,280.311,72.471,262.183,67.637c-11.387-3.027-23.071,3.75-26.098,15.136c-3.027,11.387,3.75,23.071,15.136,26.098l0,0
		c0.481,0.128,0.96,0.261,1.439,0.401l0,0l0.183,0.054l0.006,0.002l0.179,0.053l0.007,0.002c0.059,0.018,0.119,0.036,0.179,0.053
		l0.006,0.002c0.059,0.018,0.119,0.036,0.178,0.054l0.008,0.002c0.059,0.018,0.116,0.035,0.175,0.054l0.012,0.004
		c0.057,0.017,0.114,0.035,0.171,0.053l0.015,0.005l0.084,0.026l0.007,0.002l0.078,0.025l0.017,0.005l0.082,0.026l0.009,0.003
		l0.075,0.024l0.017,0.005l0.082,0.026l0.012,0.004l0.071,0.023l0.022,0.007l0.078,0.025l0.019,0.006l0.063,0.02l0.024,0.008
		l0.077,0.025l0.019,0.006l0.065,0.021l0.024,0.008l0.076,0.025l0.025,0.008l0.059,0.019l0.025,0.008l0.074,0.025l0.028,0.009
		l0.055,0.018l0.028,0.009l0.074,0.025l0.026,0.009l0.054,0.018l0.029,0.01l0.072,0.024l0.03,0.01l0.052,0.018l0.031,0.011
		l0.069,0.024l0.035,0.012l0.046,0.016l0.032,0.011l0.068,0.023l0.04,0.014l0.038,0.013l0.056,0.02l0.047,0.017l0.043,0.015
		l0.036,0.013l0.046,0.016l0.059,0.021l0.038,0.013l0.042,0.015l0.059,0.021l0.041,0.015l0.044,0.016l0.035,0.012l0.067,0.024
		l0.036,0.013l0.046,0.016l0.031,0.011l0.074,0.027l0.033,0.012l0.046,0.017l0.027,0.01l0.082,0.03l0.026,0.009l0.046,0.017
		l0.031,0.011l0.079,0.029l0.026,0.009l0.048,0.018l0.029,0.011l0.075,0.028l0.03,0.011l0.048,0.018l0.024,0.009l0.087,0.033
		l0.02,0.008l0.052,0.02l0.014,0.005l0.098,0.037l0.015,0.006l0.053,0.02l0.013,0.005l0.101,0.038l0.013,0.005l0.056,0.021
		l0.001,0.001l0.108,0.042l0.016,0.006l0.053,0.021l0.009,0.003l0.1,0.039l0.019,0.007l0.163,0.064l0.015,0.006l0.165,0.065
		l0.014,0.006c0.057,0.023,0.113,0.045,0.169,0.068l0.008,0.003l0.172,0.069l0.007,0.003c0.056,0.023,0.116,0.047,0.172,0.07
		l0.008,0.003l0.171,0.07l0.008,0.003l0.173,0.072l0.004,0.002c0.058,0.024,0.116,0.048,0.175,0.073l0.003,0.001l0.176,0.074
		l0.001,0.001c0.058,0.024,0.118,0.05,0.176,0.075l0.002,0.001c0.058,0.025,0.118,0.05,0.176,0.075l0.001,0.001
		c0.928,0.399,1.849,0.821,2.761,1.265l0.002,0.001c1.087,0.53,2.162,1.093,3.223,1.688l0.002,0.001
		c0.055,0.031,0.113,0.064,0.169,0.095l0.002,0.001c0.055,0.031,0.114,0.064,0.169,0.096l0.001,0.001
		c0.057,0.033,0.111,0.063,0.169,0.096l0.003,0.001c0.057,0.033,0.111,0.064,0.168,0.097l0.001,0
		c0.376,0.217,0.752,0.439,1.125,0.665l0.001,0.001c0.111,0.067,0.221,0.134,0.332,0.202l0.006,0.004
		c0.055,0.033,0.109,0.067,0.163,0.101l0.003,0.002c0.054,0.034,0.108,0.067,0.163,0.101l0.005,0.003
		c0.054,0.034,0.109,0.068,0.164,0.102l0.002,0.001c0.054,0.034,0.107,0.067,0.162,0.102l0.008,0.005
		c0.054,0.034,0.105,0.067,0.16,0.101l0.006,0.004l0.158,0.1l0.012,0.008l0.157,0.101l0.007,0.005l0.158,0.102l0.011,0.007
		l0.155,0.101l0.01,0.007c0.052,0.034,0.103,0.067,0.155,0.101l0.011,0.007c0.052,0.034,0.104,0.068,0.155,0.102l0.008,0.005
		l0.156,0.104l0.009,0.006l0.102,0.068l0.002,0.001l0.052,0.034l0.009,0.006l0.1,0.067l0.004,0.003l0.049,0.033l0.018,0.012
		l0.09,0.061l0.008,0.005l0.051,0.034l0.009,0.006l0.094,0.064l0.01,0.007l0.049,0.033l0.015,0.01l0.084,0.057l0.019,0.013
		l0.046,0.032l0.014,0.01l0.086,0.06l0.016,0.011l0.047,0.033l0.013,0.009l0.089,0.062l0.013,0.009l0.049,0.034l0.006,0.004
		l0.092,0.064l0.018,0.012l0.046,0.032l0.017,0.012l0.08,0.056l0.022,0.016l0.045,0.032l0.012,0.009l0.083,0.059l0.023,0.017
		l0.042,0.03l0.029,0.021l0.066,0.047l0.025,0.018l0.044,0.031l0.005,0.004l0.088,0.063l0.026,0.019l0.041,0.03l0.026,0.019
		l0.068,0.049l0.027,0.02l0.135,0.098l0.027,0.019l0.04,0.029l0.027,0.02l0.068,0.05l0.025,0.018l0.061,0.045l0.035,0.026
		l0.038,0.028l0.03,0.022l0.054,0.04l0.04,0.029l0.037,0.027l0.032,0.024l0.053,0.039l0.04,0.03l0.036,0.027l0.032,0.024
		l0.046,0.034l0.046,0.035l0.036,0.027l0.033,0.025l0.05,0.038l0.042,0.032l0.033,0.025l0.039,0.03l0.037,0.028l0.052,0.04
		l0.03,0.023l0.044,0.033l0.038,0.029l0.049,0.037l0.03,0.023l0.042,0.032l0.04,0.031l0.046,0.035l0.032,0.025l0.04,0.031
		l0.045,0.035l0.042,0.033l0.031,0.024l0.045,0.035l0.038,0.03l0.045,0.035l0.03,0.023l0.045,0.035l0.043,0.034l0.04,0.031
		l0.032,0.025l0.049,0.039l0.036,0.028l0.042,0.033l0.032,0.025l0.047,0.037l0.039,0.031l0.043,0.034l0.028,0.022l0.056,0.045
		l0.031,0.025l0.043,0.034l0.027,0.022l0.059,0.047l0.029,0.024l0.041,0.033l0.029,0.024l0.06,0.048l0.027,0.022l0.042,0.034
		l0.028,0.023l0.059,0.048l0.027,0.022l0.044,0.036l0.026,0.021l0.061,0.05l0.026,0.021l0.044,0.036l0.025,0.021l0.06,0.05
		l0.027,0.022l0.044,0.036l0.025,0.021l0.061,0.051l0.025,0.021l0.044,0.037l0.025,0.021l0.06,0.05l0.027,0.022l0.045,0.038
		l0.023,0.019l0.062,0.052l0.024,0.02l0.048,0.04l0.02,0.017l0.062,0.052l0.026,0.022l0.045,0.038l0.023,0.02l0.061,0.052
		l0.026,0.022l0.045,0.038l0.023,0.02l0.06,0.052l0.025,0.022l0.049,0.042l0.019,0.016l0.062,0.054l0.024,0.02l0.052,0.045
		l0.015,0.013l0.063,0.055l0.023,0.02l0.057,0.05l0.009,0.008l0.066,0.058l0.018,0.016l0.06,0.052l0.012,0.011l0.061,0.053
		l0.023,0.02l0.057,0.05l0.017,0.015l0.057,0.051l0.021,0.019l0.063,0.056l0.01,0.009l0.058,0.052l0.021,0.019l0.064,0.057
		l0.01,0.009l0.057,0.051l0.021,0.019l0.063,0.057l0.015,0.014l0.051,0.046l0.023,0.02l0.063,0.057l0.015,0.014l0.051,0.046
		l0.023,0.021l0.062,0.057l0.014,0.013l0.052,0.047l0.022,0.02l0.063,0.057l0.014,0.013l0.056,0.051l0.017,0.015l0.065,0.06
		l0.013,0.012l0.055,0.051l0.018,0.016l0.064,0.06l0.014,0.013l0.056,0.053l0.015,0.014l0.067,0.062l0.01,0.009l0.059,0.056
		l0.013,0.012l0.066,0.062l0.013,0.012l0.058,0.055l0.013,0.012l0.066,0.062l0.014,0.013l0.056,0.054l0.013,0.013l0.065,0.062
		l0.016,0.015l0.055,0.052l0.014,0.013l0.064,0.062l0.015,0.014l0.056,0.054l0.012,0.012l0.064,0.062l0.015,0.015l0.058,0.056
		l0.01,0.009l0.065,0.063l0.017,0.016l0.055,0.054l0.011,0.011l0.064,0.062l0.017,0.016l0.057,0.056l0.009,0.009l0.064,0.063
		l0.017,0.016l0.056,0.056l0.01,0.01l0.063,0.062l0.018,0.018l0.059,0.059l0.006,0.006l0.064,0.064l0.017,0.017l0.065,0.065
		c24.994,24.994,24.994,65.516,0,90.51l0,0c-24.993,24.994-65.515,24.994-90.509,0.001c0,0-0.001-0.001-0.001-0.001
		c-8.331-8.331-21.839-8.331-30.17,0S150.961,237.812,159.292,246.143L159.292,246.143z"/>
</g>
<path style="fill:#7BF1B4;" d="M234.667,42.668c-66.924,0-123.009,52.255-127.684,118.965c-0.824,11.753,8.037,21.949,19.79,22.772
	c0.507,0.036,1.013,0.053,1.513,0.053c11.183-0.012,20.458-8.656,21.257-19.81c0.678-9.805,3.054-19.417,7.021-28.409l0.002-0.004
	l0.049-0.111l0,0c0.116-0.262,0.236-0.528,0.354-0.789l0.002-0.005c0.017-0.037,0.033-0.072,0.049-0.108l0.002-0.004l0.049-0.108
	l0.002-0.005c0.016-0.034,0.034-0.074,0.05-0.108l0.002-0.005l0.049-0.107l0.003-0.006l0.049-0.107l0.002-0.005l0.051-0.109l0-0.001
	c0.087-0.186,0.175-0.374,0.263-0.559l0.001-0.002c0.017-0.037,0.033-0.069,0.05-0.106l0.004-0.009l0.049-0.104l0.004-0.009
	l0.049-0.102l0.005-0.01c0.016-0.034,0.033-0.069,0.049-0.103l0.004-0.008l0.049-0.101l0.007-0.015l0.048-0.1l0.004-0.007
	l0.051-0.105l0.003-0.006c0.053-0.109,0.107-0.218,0.16-0.327l0.001-0.003l0.051-0.104l0.005-0.01l0.051-0.102l0.004-0.008
	l0.048-0.097l0.009-0.018l0.048-0.095l0.007-0.014l0.049-0.097l0.007-0.015l0.049-0.097l0.007-0.013l0.049-0.098l0.007-0.014
	l0.05-0.098l0.005-0.01l0.051-0.1l0.006-0.011c0.017-0.034,0.035-0.067,0.051-0.101l0.003-0.006l0.05-0.098l0.006-0.011l0.049-0.097
	l0.008-0.015l0.049-0.096l0.007-0.015l0.049-0.095l0.008-0.016l0.049-0.094l0.009-0.017c0.016-0.031,0.033-0.063,0.049-0.094
	l0.007-0.015l0.05-0.096l0.007-0.014l0.05-0.096l0.007-0.014l0.051-0.097l0.007-0.012l0.051-0.098l0.006-0.012l0.053-0.099
	l0.003-0.006l0.055-0.103l0.002-0.003l0.054-0.101l0.005-0.009l0.052-0.097l0.007-0.014c0.017-0.031,0.034-0.063,0.05-0.094
	l0.009-0.016l0.05-0.094l0.008-0.016l0.05-0.092l0.009-0.017c0.017-0.031,0.034-0.062,0.05-0.093l0.009-0.016l0.05-0.092
	l0.009-0.017l0.051-0.093l0.008-0.015l0.051-0.093l0.009-0.016l0.052-0.095l0.006-0.01c0.018-0.033,0.035-0.064,0.054-0.097
	l0.007-0.012l0.052-0.094l0.005-0.009l0.053-0.096l0.008-0.014c0.017-0.031,0.036-0.065,0.053-0.096l0.007-0.012l0.053-0.094
	l0.009-0.016l0.052-0.092l0.009-0.016l0.05-0.09l0.012-0.021l0.051-0.089l0.009-0.017l0.05-0.089l0.013-0.022
	c0.016-0.028,0.034-0.059,0.05-0.087l0.011-0.019l0.05-0.088l0.011-0.02l0.052-0.091l0.005-0.009l0.054-0.093l0.008-0.014
	l0.052-0.091l0.007-0.011l0.053-0.091l0.01-0.018l0.051-0.088l0.011-0.019l0.051-0.087l0.013-0.021l0.05-0.085l0.013-0.023
	l0.049-0.083l0.015-0.025l0.049-0.084l0.013-0.021l0.05-0.086l0.013-0.023l0.05-0.085l0.012-0.021l0.051-0.086l0.012-0.021
	l0.052-0.087l0.008-0.013l0.052-0.087l0.01-0.017l0.052-0.086l0.01-0.017l0.051-0.085l0.014-0.024l0.05-0.083l0.013-0.022
	l0.052-0.085l0.012-0.021l0.052-0.085l0.013-0.021l0.051-0.084l0.015-0.024l0.051-0.083l0.013-0.022l0.052-0.085l0.013-0.021
	c0.018-0.03,0.034-0.055,0.052-0.085l0.013-0.021l0.051-0.083l0.015-0.024l0.048-0.078l0.013-0.021l0.052-0.083l0.009-0.015
	l0.054-0.086l0.012-0.02l0.052-0.083l0.014-0.023l0.052-0.083l0.014-0.023l0.052-0.082l0.014-0.023l0.052-0.083l0.014-0.023
	l0.051-0.08l0.017-0.026l0.052-0.081l0.014-0.021l0.054-0.085l0.011-0.017c0.019-0.029,0.038-0.059,0.057-0.089l0.008-0.013
	l0.057-0.088l0.011-0.017l0.055-0.085l0.008-0.013l0.055-0.085l0.011-0.017l0.056-0.086l0.012-0.019l0.053-0.081l0.016-0.024
	l0.054-0.082l0.013-0.02l0.054-0.082l0.014-0.022l0.055-0.084l0.012-0.019l0.055-0.083l0.015-0.023l0.054-0.082l0.013-0.019
	l0.055-0.084l0.013-0.02c0.018-0.027,0.039-0.058,0.057-0.085l0.01-0.016l0.053-0.08l0.017-0.025l0.052-0.078l0.011-0.016
	l0.058-0.086l0.01-0.016l0.06-0.088l0.009-0.014l0.058-0.085l0.013-0.02l0.057-0.083l0.012-0.018
	c0.02-0.029,0.037-0.054,0.057-0.083l0.014-0.02l0.056-0.082l0.013-0.019l0.056-0.081l0.016-0.023l0.055-0.08l0.014-0.02
	l0.056-0.082l0.014-0.02l0.057-0.082l0.011-0.016l0.054-0.078l0.017-0.024l0.052-0.076l0.013-0.018l0.056-0.081l0.015-0.022
	l0.054-0.078l0.018-0.025l0.053-0.075l0.02-0.028l0.053-0.075l0.018-0.025l0.055-0.078l0.017-0.023l0.055-0.078l0.017-0.024
	l0.055-0.078l0.016-0.023l0.056-0.079l0.015-0.02l0.057-0.08l0.016-0.023l0.051-0.071l0.02-0.028l0.05-0.069l0.021-0.029
	l0.049-0.068l0.021-0.029l0.051-0.07l0.019-0.027l0.053-0.074l0.02-0.027l0.052-0.072l0.021-0.029l0.052-0.072l0.022-0.03
	l0.051-0.07l0.022-0.031l0.051-0.07l0.023-0.031l0.049-0.067l0.024-0.033l0.049-0.066l0.024-0.032l0.048-0.065l0.024-0.032
	l0.048-0.065l0.023-0.031l0.049-0.065l0.023-0.031l0.053-0.07l0.016-0.022l0.056-0.075l0.02-0.026l0.054-0.072l0.021-0.028
	l0.053-0.07l0.022-0.03l0.054-0.072l0.02-0.026l0.055-0.072l0.02-0.027l0.056-0.073l0.019-0.025l0.056-0.073l0.021-0.027
	l0.057-0.074l0.017-0.022l0.051-0.066l0.027-0.035l0.047-0.061l0.026-0.034l0.046-0.06l0.029-0.038l0.048-0.063l0.02-0.026
	l0.055-0.071l0.022-0.028l0.055-0.07l0.021-0.027l0.054-0.069l0.024-0.03l0.054-0.07l0.02-0.026l0.057-0.072l0.021-0.027l0.055-0.07
	l0.022-0.028l0.053-0.067l0.025-0.032l0.049-0.061l0.026-0.033l0.048-0.061l0.029-0.036l0.047-0.059l0.028-0.035l0.049-0.061
	l0.026-0.032l0.053-0.066l0.02-0.025l0.057-0.071l0.021-0.027l0.055-0.068l0.024-0.029l0.053-0.066l0.027-0.033l0.053-0.065
	l0.024-0.029l0.056-0.068l0.022-0.028l0.056-0.068l0.023-0.028l0.057-0.069l0.02-0.024l0.057-0.069l0.018-0.022l0.06-0.073
	l0.014-0.017l0.059-0.071l0.021-0.025l0.056-0.067l0.021-0.025l0.059-0.071l0.02-0.024l0.059-0.071l0.021-0.025l0.058-0.07
	l0.021-0.026l0.057-0.068l0.024-0.029l0.056-0.067l0.023-0.027l0.057-0.068l0.022-0.027l0.058-0.068l0.023-0.027l0.049-0.058
	l0.032-0.038l0.048-0.056l0.031-0.036l0.047-0.055l0.031-0.036l0.05-0.059l0.026-0.031l0.052-0.061l0.024-0.029l0.058-0.067
	l0.023-0.026l0.058-0.067l0.023-0.027l0.06-0.069l0.021-0.024l0.058-0.067l0.025-0.029l0.058-0.067l0.022-0.026l0.058-0.067
	l0.024-0.028l0.059-0.067l0.021-0.024l0.05-0.057l0.034-0.038l0.048-0.054l0.031-0.035l0.048-0.054l0.034-0.038l0.049-0.056
	l0.024-0.028l0.055-0.062l0.029-0.032l0.054-0.061l0.027-0.031l0.055-0.062l0.028-0.031l0.056-0.063l0.026-0.029l0.057-0.063
	l0.026-0.029l0.057-0.063l0.024-0.027l0.059-0.066l0.023-0.025l0.059-0.065l0.022-0.024l0.056-0.062l0.028-0.03l0.053-0.058
	l0.028-0.031l0.054-0.059l0.028-0.031l0.054-0.06l0.024-0.026l0.06-0.065l0.025-0.027l0.059-0.064l0.025-0.027l0.059-0.063
	l0.026-0.028l0.059-0.063l0.025-0.027l0.059-0.063l0.026-0.028l0.058-0.062l0.027-0.028l0.059-0.063l0.024-0.026l0.056-0.059
	l0.028-0.03l0.053-0.056l0.03-0.032l0.053-0.056l0.029-0.031l0.055-0.058l0.025-0.026l0.06-0.063l0.024-0.025l0.062-0.065
	l0.024-0.026l0.062-0.065l0.024-0.025l0.062-0.065l0.024-0.025l0.06-0.063l0.027-0.028l0.059-0.061l0.027-0.028l0.06-0.062
	l0.026-0.027l0.054-0.055l0.033-0.034l0.051-0.052l0.035-0.036l0.047-0.048l0.038-0.039l0.05-0.052l0.031-0.032l0.054-0.055
	l0.026-0.027l0.061-0.062l0.026-0.026l0.06-0.061l0.027-0.028l0.062-0.063l0.024-0.024l0.063-0.063l0.025-0.025l0.063-0.064
	l0.024-0.024l0.063-0.063l0.025-0.025l0.065-0.065l0.019-0.019l0.067-0.067l0.021-0.02l0.062-0.062l0.025-0.025l0.057-0.057
	l0.031-0.031l0.057-0.056l0.023-0.023l0.063-0.062l0.026-0.026l0.062-0.061l0.027-0.026l0.06-0.059l0.03-0.029l0.059-0.058
	l0.028-0.028l0.06-0.059l0.031-0.03l0.059-0.057l0.03-0.029l0.059-0.057l0.03-0.029l0.056-0.055l0.03-0.029l0.056-0.054l0.033-0.032
	l0.052-0.05l0.036-0.035l0.051-0.049l0.036-0.035l0.053-0.05l0.03-0.028l0.061-0.058l0.027-0.026l0.062-0.059l0.029-0.028
	l0.06-0.057l0.032-0.03l0.059-0.056l0.031-0.029l0.06-0.057l0.032-0.03l0.058-0.054l0.034-0.032l0.048-0.045l0.044-0.041l0.043-0.04
	l0.044-0.041l0.05-0.047l0.037-0.034l0.052-0.048l0.037-0.034l0.05-0.047l0.042-0.039l0.049-0.045l0.033-0.03l0.059-0.054
	l0.032-0.029l0.06-0.055l0.032-0.029l0.059-0.054l0.032-0.03l0.061-0.056l0.03-0.027l0.064-0.058l0.026-0.024l0.065-0.059
	l0.027-0.025l0.059-0.054l0.034-0.031l0.053-0.048l0.039-0.035l0.051-0.046l0.038-0.034l0.054-0.048l0.037-0.033l0.051-0.046
	l0.041-0.037l0.054-0.048l0.029-0.026l0.063-0.056l0.029-0.026l0.064-0.057l0.029-0.025l0.062-0.055l0.033-0.029l0.062-0.054
	l0.031-0.027l0.062-0.054l0.032-0.028l0.064-0.056l0.026-0.023l0.059-0.051l0.037-0.032l0.057-0.05l0.03-0.026l0.059-0.052
	l0.034-0.029l0.061-0.053l0.023-0.02l0.066-0.057l0.031-0.026l0.063-0.055l0.029-0.025l0.063-0.055l0.032-0.028l0.063-0.054
	l0.031-0.026l0.062-0.053l0.036-0.031l0.061-0.052l0.031-0.027l0.064-0.054l0.031-0.026l0.066-0.056l0.026-0.022l0.062-0.052
	l0.033-0.028l0.06-0.05l0.033-0.028l0.059-0.05l0.035-0.029l0.059-0.05l0.031-0.026l0.062-0.052l0.03-0.025l0.067-0.056l0.027-0.023
	l0.068-0.056l0.028-0.023l0.067-0.055l0.029-0.024l0.068-0.056l0.026-0.022l0.068-0.056l0.029-0.024l0.067-0.055l0.029-0.024
	l0.062-0.051l0.033-0.027l0.057-0.047l0.038-0.031l0.056-0.045l0.038-0.031l0.057-0.046l0.034-0.027l0.063-0.051l0.027-0.022
	l0.068-0.055l0.029-0.024l0.067-0.054l0.03-0.024l0.066-0.053l0.031-0.025l0.065-0.052l0.033-0.027l0.063-0.05l0.035-0.028
	l0.064-0.051l0.031-0.025l0.064-0.051l0.033-0.026l0.058-0.046l0.039-0.031l0.053-0.042l0.043-0.034l0.056-0.044l0.039-0.031
	l0.054-0.042l0.045-0.035l0.052-0.041l0.041-0.032l0.056-0.044l0.036-0.028l0.063-0.049l0.034-0.027l0.063-0.049l0.035-0.027
	l0.065-0.05l0.033-0.025l0.065-0.05l0.034-0.026l0.067-0.051l0.028-0.021l0.068-0.052l0.031-0.024l0.064-0.049l0.032-0.025
	l0.059-0.045l0.041-0.031l0.059-0.044l0.032-0.024l0.066-0.05l0.029-0.022l0.069-0.052l0.029-0.022l0.07-0.053l0.03-0.022
	l0.071-0.053l0.028-0.021l0.071-0.053l0.03-0.022l0.07-0.052l0.03-0.022l0.069-0.051l0.032-0.024l0.068-0.05l0.03-0.022l0.064-0.048
	l0.036-0.027l0.061-0.045l0.036-0.026l0.061-0.044l0.039-0.029l0.062-0.045l0.029-0.021l0.072-0.053l0.025-0.019l0.073-0.053
	l0.028-0.021l0.071-0.052l0.031-0.022l0.071-0.051l0.029-0.021l0.073-0.053l0.028-0.02l0.073-0.052l0.028-0.02l0.074-0.053
	l0.027-0.02l0.076-0.054l0.021-0.015l0.081-0.058l0.019-0.014l0.072-0.051l0.029-0.021l0.066-0.047l0.035-0.025l0.066-0.046
	l0.028-0.02l0.072-0.051l0.028-0.02l0.073-0.051l0.029-0.021l0.071-0.05l0.031-0.022l0.071-0.05l0.031-0.021l0.071-0.05l0.03-0.021
	l0.074-0.051l0.028-0.019l0.073-0.05l0.031-0.021l0.071-0.049l0.028-0.02l0.069-0.047l0.031-0.021l0.07-0.048l0.03-0.02l0.069-0.047
	l0.03-0.021l0.073-0.05l0.024-0.016l0.077-0.052l0.026-0.018l0.078-0.053l0.025-0.017l0.075-0.05l0.031-0.021l0.074-0.049
	l0.029-0.02l0.074-0.05l0.028-0.019l0.077-0.051l0.024-0.016l0.077-0.052l0.027-0.018l0.078-0.052l0.022-0.015l0.071-0.047
	l0.033-0.021l0.071-0.047l0.025-0.017l0.072-0.047l0.035-0.023l0.07-0.046l0.029-0.019l0.074-0.048l0.032-0.021l0.073-0.048
	l0.031-0.02l0.073-0.047l0.033-0.022l0.073-0.047l0.031-0.02l0.073-0.047l0.033-0.021l0.074-0.048l0.028-0.018l0.071-0.045
	l0.038-0.024l0.061-0.039l0.041-0.026l0.062-0.04l0.04-0.026l0.067-0.042l0.028-0.018l0.075-0.047l0.028-0.018l0.077-0.049
	l0.027-0.017l0.077-0.048l0.031-0.019l0.074-0.047l0.031-0.019l0.075-0.047l0.032-0.02l0.074-0.046l0.032-0.02l0.074-0.046
	l0.032-0.02l0.075-0.046l0.03-0.018l0.072-0.044l0.034-0.021l0.066-0.041l0.039-0.024l0.065-0.04l0.035-0.021l0.072-0.044
	l0.029-0.018l0.076-0.046l0.028-0.017l0.079-0.048l0.028-0.017l0.078-0.047l0.029-0.018l0.077-0.047l0.031-0.018l0.076-0.046
	l0.03-0.018l0.078-0.046l0.03-0.018l0.077-0.046l0.031-0.018l0.077-0.045l0.031-0.018l0.068-0.04l0.037-0.022l0.069-0.041
	l0.037-0.022l0.067-0.04l0.036-0.021l0.071-0.042l0.029-0.017l0.076-0.045l0.032-0.019l0.077-0.045l0.031-0.018l0.075-0.044
	l0.033-0.019l0.076-0.044l0.033-0.019l0.074-0.043l0.034-0.019l0.078-0.045l0.027-0.015l0.08-0.046l0.029-0.017l0.079-0.045
	l0.029-0.016l0.069-0.039l0.039-0.022l0.073-0.042l0.024-0.014l0.079-0.045l0.027-0.015l0.082-0.046l0.024-0.014l0.081-0.046
	l0.029-0.017l0.082-0.046l0.025-0.014l0.083-0.046l0.028-0.015l0.081-0.045l0.028-0.015l0.08-0.045l0.029-0.016l0.082-0.045
	l0.024-0.013l0.084-0.046l0.027-0.015l0.082-0.045l0.023-0.013l0.077-0.042l0.033-0.018l0.076-0.042l0.025-0.013l0.085-0.046
	l0.021-0.011l0.087-0.047l0.024-0.013l0.083-0.045l0.029-0.016l0.081-0.043l0.029-0.015l0.082-0.044l0.028-0.015l0.082-0.044
	l0.029-0.015l0.081-0.043l0.03-0.016l0.081-0.043l0.026-0.014l0.086-0.045l0.022-0.012l0.084-0.044l0.025-0.013l0.077-0.041
	l0.033-0.017l0.075-0.039l0.03-0.015l0.08-0.042l0.028-0.014l0.081-0.042l0.031-0.016l0.077-0.04l0.035-0.018l0.077-0.04
	l0.033-0.017l0.079-0.041l0.032-0.016l0.08-0.041l0.032-0.016l0.079-0.04l0.033-0.017l0.08-0.041l0.029-0.015l0.08-0.04l0.03-0.015
	l0.077-0.039l0.034-0.017l0.073-0.037l0.036-0.018l0.078-0.039l0.024-0.012l0.085-0.042l0.029-0.014l0.086-0.043l0.025-0.012
	l0.084-0.042l0.031-0.015l0.082-0.041l0.029-0.014l0.083-0.041l0.03-0.015l0.084-0.041l0.027-0.013l0.083-0.041l0.03-0.015
	l0.086-0.042l0.021-0.01l0.091-0.044l0.019-0.009l0.097-0.047l0.004-0.002l0.098-0.047l0.017-0.008l0.093-0.045l0.02-0.009
	l0.09-0.043l0.024-0.012l0.09-0.043l0.022-0.011l0.089-0.042l0.026-0.012l0.089-0.042l0.023-0.011l0.09-0.043l0.023-0.011
	l0.091-0.043l0.021-0.01l0.092-0.043l0.023-0.011l0.09-0.042l0.023-0.01l0.084-0.039l0.028-0.013L199,93.123l0.029-0.013
	l0.082-0.038l0.028-0.013l0.086-0.039l0.025-0.011l0.09-0.041l0.025-0.011l0.09-0.041l0.023-0.011l0.091-0.041l0.023-0.01
	l0.091-0.041l0.023-0.011l0.091-0.041l0.023-0.01l0.09-0.041l0.024-0.01l0.091-0.041l0.023-0.01l0.091-0.04l0.022-0.01l0.089-0.039
	l0.02-0.009l0.092-0.04l0.017-0.007l0.095-0.042l0.02-0.009l0.095-0.041l0.021-0.009l0.092-0.04l0.024-0.011l0.09-0.039l0.027-0.012
	l0.087-0.038l0.029-0.012l0.09-0.039l0.023-0.01l0.093-0.04l0.021-0.009l0.094-0.04l0.021-0.009l0.095-0.04l0.019-0.008l0.099-0.042
	l0.012-0.005l0.095-0.04l0.02-0.008l0.094-0.039l0.017-0.007l0.093-0.039l0.025-0.01l0.092-0.038l0.023-0.01l0.091-0.038
	l0.026-0.011l0.09-0.037l0.026-0.011l0.09-0.037l0.027-0.011l0.091-0.037l0.022-0.009l0.092-0.038l0.027-0.011l0.09-0.037
	l0.026-0.011l0.085-0.034l0.032-0.013l0.083-0.033l0.029-0.012l0.083-0.033l0.031-0.012l0.085-0.034l0.024-0.01l0.091-0.036
	l0.027-0.011l0.093-0.037l0.021-0.008l0.093-0.037l0.025-0.01l0.092-0.036l0.025-0.01l0.091-0.036l0.028-0.011l0.091-0.035
	l0.024-0.009l0.094-0.036l0.023-0.009l0.094-0.036l0.022-0.009l0.092-0.035l0.024-0.009l0.092-0.035l0.017-0.006l0.096-0.036
	l0.021-0.008l0.096-0.036l0.021-0.008l0.093-0.035l0.027-0.01l0.092-0.035l0.024-0.009l0.094-0.035l0.025-0.01l0.092-0.034
	l0.025-0.009l0.093-0.035l0.025-0.009l0.095-0.035l0.019-0.007l0.1-0.037l0.017-0.006l0.101-0.037l0.017-0.006l0.097-0.035
	l0.021-0.007l0.091-0.033l0.022-0.008l0.095-0.034l0.02-0.007l0.097-0.035l0.023-0.008l0.093-0.033l0.027-0.01l0.092-0.033
	l0.027-0.009l0.094-0.033l0.024-0.009l0.095-0.033l0.025-0.009l0.091-0.032l0.029-0.01l0.092-0.032l0.025-0.009l0.095-0.033
	L206.766,90l0.099-0.034l0.018-0.006l0.091-0.031l0.028-0.01l0.09-0.031l0.021-0.007l0.098-0.033l0.02-0.007l0.099-0.034
	l0.021-0.007l0.094-0.032l0.027-0.009l0.095-0.032l0.024-0.008l0.096-0.032l0.023-0.008l0.098-0.033l0.021-0.007l0.097-0.032
	l0.024-0.008l0.098-0.032l0.018-0.006l0.102-0.033l0.019-0.006l0.104-0.034l0.008-0.003l0.099-0.032l0.025-0.008l0.095-0.031
	l0.018-0.006l0.101-0.032l0.021-0.007l0.101-0.032l0.018-0.006l0.1-0.032l0.023-0.007L209,89.263l0.022-0.007l0.097-0.031
	l0.024-0.007l0.099-0.031l0.019-0.006l0.1-0.031l0.024-0.007l0.099-0.031l0.019-0.006l0.102-0.031l0.02-0.006l0.098-0.03
	l0.019-0.006l0.097-0.03l0.021-0.006l0.098-0.03l0.021-0.006l0.098-0.029l0.025-0.008l0.096-0.029l0.025-0.007l0.095-0.028
	l0.029-0.008l0.093-0.028l0.028-0.008l0.095-0.028l0.026-0.008l0.096-0.028l0.024-0.007l0.099-0.029l0.022-0.006l0.101-0.029
	l0.018-0.005l0.105-0.03l0.012-0.004l0.105-0.03l0.012-0.003l0.105-0.03l0.016-0.004l0.103-0.029l0.021-0.006l0.101-0.028
	l0.021-0.006l0.099-0.028l0.025-0.007l0.097-0.027l0.025-0.007l0.1-0.028l0.022-0.006l0.101-0.028l0.021-0.006l0.102-0.028
	l0.022-0.006l0.101-0.028l0.019-0.005l0.106-0.029l0.01-0.003l0.111-0.03l0.009-0.002l0.11-0.029l0.009-0.002l0.109-0.029
	l0.016-0.004l0.108-0.029l0.014-0.004l0.106-0.028l0.018-0.005l0.105-0.027l0.018-0.005l0.104-0.027l0.021-0.005l0.106-0.027
	l0.013-0.003l0.109-0.028l0.016-0.004l0.108-0.028l0.015-0.004l0.109-0.028l0.013-0.003l0.113-0.028l0.003-0.001l0.116-0.029
	l0.008-0.002l0.111-0.028l0.01-0.003l0.108-0.027l0.018-0.004l0.106-0.026l0.018-0.004l0.104-0.026l0.02-0.005l0.104-0.025
	l0.019-0.005l0.103-0.025l0.023-0.006l0.104-0.025l0.018-0.004l0.107-0.025l0.016-0.004l0.108-0.026l0.014-0.003l0.11-0.026
	l0.015-0.004l0.111-0.026l0.008-0.002l0.113-0.026l0.006-0.001l0.112-0.026l0.014-0.003l0.106-0.024l0.021-0.005l0.105-0.024
	l0.018-0.004l0.106-0.024l0.019-0.004l0.105-0.023l0.021-0.005l0.103-0.023l0.023-0.005l0.104-0.023l0.018-0.004l0.108-0.024
	l0.014-0.003l0.11-0.024l0.014-0.003l0.112-0.024l0.009-0.002l0.117-0.025l0.002,0l0.119-0.025l0.005-0.001l0.114-0.024l0.013-0.003
	l0.109-0.023l0.018-0.004l0.108-0.022l0.016-0.003l0.11-0.023l0.015-0.003l0.11-0.022l0.016-0.003l0.108-0.022l0.019-0.004
	L217.808,87l0.019-0.004l0.107-0.021l0.018-0.004l0.109-0.022l0.014-0.003l0.106-0.021l0.021-0.004l0.106-0.021l0.009-0.002
	l0.113-0.022l0.013-0.003l0.111-0.021l0.016-0.003l0.107-0.02l0.021-0.004l0.105-0.02l0.021-0.004l0.105-0.02l0.02-0.004l0.107-0.02
	l0.018-0.003l0.106-0.02l0.021-0.004l0.107-0.02l0.016-0.003l0.11-0.02l0.016-0.003l0.114-0.02l0.007-0.001l0.12-0.021l0.005-0.001
	l0.118-0.021l0.006-0.001l0.115-0.02l0.014-0.003l0.112-0.019l0.015-0.003l0.108-0.018l0.022-0.004l0.106-0.018l0.02-0.003
	l0.106-0.018l0.021-0.004l0.108-0.018l0.017-0.003l0.109-0.018l0.02-0.003l0.109-0.018l0.015-0.002l0.113-0.018l0.012-0.002
	l0.115-0.018l0.01-0.002l0.112-0.018l0.012-0.002l0.114-0.018l0.01-0.002l0.113-0.018l0.017-0.003l0.111-0.017l0.015-0.002
	l0.112-0.017l0.015-0.002l0.111-0.017l0.017-0.003l0.11-0.017l0.019-0.003l0.108-0.016l0.02-0.003l0.107-0.016l0.022-0.003
	l0.108-0.016l0.017-0.002l0.112-0.016l0.013-0.002l0.116-0.017l0.007-0.001l0.118-0.017l0.005-0.001l0.12-0.017l0.008-0.001
	l0.115-0.016l0.015-0.002l0.11-0.015l0.019-0.003l0.109-0.015l0.019-0.003l0.109-0.015l0.019-0.003l0.11-0.014l0.018-0.002
	l0.11-0.014l0.02-0.003l0.11-0.014l0.016-0.002l0.114-0.014l0.013-0.002l0.115-0.014l0.013-0.002l0.113-0.014l0.01-0.001
	l0.113-0.014l0.014-0.002l0.114-0.014l0.016-0.002l0.11-0.013l0.02-0.002l0.11-0.013l0.019-0.002l0.109-0.013l0.021-0.002
	l0.109-0.013l0.019-0.002l0.109-0.012l0.021-0.002l0.111-0.012l0.015-0.002l0.113-0.012l0.017-0.002l0.115-0.012l0.007-0.001
	l0.123-0.013l0.001,0c0.084-0.009,0.166-0.018,0.25-0.026l0.009-0.001l0.12-0.012l0.008-0.001l0.116-0.012l0.017-0.002l0.112-0.011
	l0.018-0.002l0.108-0.011l0.025-0.002l0.107-0.01l0.02-0.002l0.111-0.01l0.019-0.002l0.112-0.01l0.015-0.001l0.116-0.011
	l0.011-0.001l0.12-0.011l0.004,0l0.127-0.011h0l0.123-0.011l0.008-0.001l0.118-0.01l0.014-0.001l0.114-0.01l0.017-0.001l0.113-0.009
	l0.018-0.001l0.111-0.009l0.02-0.002l0.111-0.009l0.019-0.001l0.112-0.009l0.017-0.001l0.115-0.009l0.013-0.001l0.116-0.009
	l0.016-0.001l0.115-0.008l0.014-0.001l0.118-0.008l0.008-0.001c0.082-0.006,0.165-0.012,0.247-0.017l0.008-0.001l0.119-0.008
	l0.012-0.001l0.117-0.008l0.015-0.001l0.116-0.007l0.015-0.001l0.114-0.007l0.019-0.001l0.112-0.007l0.019-0.001l0.113-0.007
	l0.017-0.001l0.116-0.007l0.013-0.001l0.117-0.007l0.014-0.001l0.118-0.007l0.01-0.001l0.123-0.007l0.002,0l0.126-0.007l0.005,0
	l0.123-0.006l0.009,0l0.116-0.006l0.018-0.001l0.112-0.005l0.02-0.001l0.112-0.005l0.02-0.001l0.114-0.005l0.017-0.001l0.113-0.005
	l0.02-0.001l0.114-0.005l0.016-0.001l0.116-0.005l0.014-0.001l0.12-0.005l0.006,0l0.124-0.005l0.009,0
	c0.085-0.003,0.164-0.006,0.25-0.009l0.008,0l0.123-0.004l0.009,0l0.118-0.004l0.016,0l0.117-0.003l0.015,0l0.116-0.003l0.017,0
	l0.116-0.003l0.015,0l0.115-0.003l0.02,0l0.113-0.003l0.018,0l0.116-0.003l0.014,0l0.119-0.002l0.01,0l0.123-0.002l0.007,0
	l0.121-0.002l0.007,0l0.123-0.002l0.01,0l0.121-0.002l0.012,0l0.118-0.002l0.016,0l0.115-0.001l0.02,0l0.113-0.001l0.021,0
	l0.112-0.001l0.021,0l0.113-0.001l0.019,0l0.115-0.001h0.016l0.118,0h0.012l0.122,0h0.007l0.127,0
	c11.782,0,21.333-9.551,21.333-21.333S246.45,42.668,234.667,42.668L234.667,42.668z"/>
<path style="fill:#C1F8DC;" d="M234.667,42.668c-21.455,0.004-42.566,5.391-61.399,15.669c-10.337,5.654-14.133,18.617-8.48,28.954
	c5.646,10.323,18.584,14.125,28.918,8.499c2.946-1.615,5.984-3.053,9.1-4.309l0,0c0.076-0.03,0.147-0.059,0.223-0.089l0.014-0.006
	l0.059-0.024l0.014-0.005l0.06-0.024l0.014-0.005c0.048-0.019,0.095-0.038,0.143-0.057l0.014-0.006l0.06-0.024l0.014-0.005
	l0.063-0.025l0.008-0.003l0.074-0.029l0.003-0.001l0.065-0.025l0.021-0.008l0.052-0.02l0.02-0.008l0.054-0.021l0.019-0.007
	l0.069-0.027l0.016-0.006l0.052-0.02l0.026-0.01l0.046-0.018l0.025-0.01l0.048-0.018l0.029-0.011l0.06-0.023l0.029-0.011
	l0.041-0.016l0.031-0.012l0.041-0.016l0.027-0.01l0.04-0.015l0.068-0.026l0.026-0.01l0.036-0.014l0.033-0.013l0.035-0.013
	l0.036-0.014l0.035-0.013l0.026-0.01l0.083-0.031l0.02-0.008l0.039-0.015l0.032-0.012l0.04-0.015l0.023-0.009l0.046-0.017
	l0.005-0.002l0.107-0.04l0.014-0.005l0.048-0.018l0.018-0.007l0.047-0.017l0.022-0.008c0.053-0.02,0.107-0.039,0.16-0.059
	l0.01-0.004l0.051-0.019l0.014-0.005l0.055-0.02l0.002-0.001c0.08-0.029,0.162-0.059,0.243-0.088l0.003-0.001l0.059-0.021
	l0.004-0.001c0.08-0.029,0.16-0.057,0.24-0.086l0.007-0.002c0.08-0.028,0.16-0.057,0.241-0.085l0.003-0.001l0.06-0.021l0.001,0
	c5.881-2.065,11.971-3.476,18.161-4.208l0.002,0l0.063-0.007l0.009-0.001c0.085-0.01,0.169-0.02,0.255-0.03l0.013-0.001l0.061-0.007
	l0.001,0l0.2-0.022l0.001,0l0.062-0.007l0.009-0.001l0.06-0.007l0.01-0.001l0.187-0.02l0.009-0.001l0.056-0.006l0.019-0.002
	l0.056-0.006l0.007-0.001l0.184-0.019l0.017-0.002l0.051-0.005l0.023-0.002l0.049-0.005l0.028-0.003l0.169-0.017l0.016-0.002
	l0.053-0.005l0.021-0.002l0.055-0.005l0.002,0l0.189-0.018l0.018-0.002l0.053-0.005l0.019-0.002l0.055-0.005l0.011-0.001l0.112-0.01
	l0.015-0.001l0.048-0.004l0.029-0.003l0.044-0.004l0.033-0.003l0.044-0.004l0.03-0.003l0.087-0.008l0.024-0.002l0.048-0.004
	l0.028-0.002l0.047-0.004l0.027-0.002l0.047-0.004l0.028-0.002l0.091-0.008l0.022-0.002l0.049-0.004l0.027-0.002l0.045-0.004
	l0.033-0.003l0.045-0.004l0.003,0l0.119-0.01l0.017-0.001l0.049-0.004l0.03-0.002l0.045-0.004l0.032-0.003l0.043-0.003l0.069-0.005
	l0.034-0.003l0.044-0.003l0.039-0.003l0.035-0.003l0.043-0.003l0.033-0.003l0.077-0.006l0.034-0.002l0.045-0.003l0.03-0.002
	l0.046-0.003l0.031-0.002l0.045-0.003l0.034-0.002l0.051-0.004l0.059-0.004l0.042-0.003l0.034-0.002l0.043-0.003l0.036-0.002
	l0.039-0.003l0.045-0.003l0.056-0.004l0.047-0.003l0.041-0.003l0.035-0.002l0.042-0.003l0.036-0.002l0.04-0.003l0.036-0.002
	l0.075-0.005l0.034-0.002l0.042-0.003l0.035-0.002l0.043-0.003l0.033-0.002l0.042-0.003l0.054-0.003l0.041-0.002l0.054-0.003
	l0.035-0.002l0.039-0.002l0.04-0.002l0.04-0.002l0.036-0.002l0.073-0.004l0.024-0.001l0.054-0.003l0.032-0.002l0.048-0.003
	l0.032-0.002l0.052-0.003l0.025-0.001l0.076-0.004l0.026-0.001l0.053-0.003l0.034-0.002l0.042-0.002l0.037-0.002l0.045-0.002
	l0.032-0.001l0.073-0.003l0.028-0.001l0.051-0.002l0.03-0.001l0.05-0.002l0.031-0.001l0.053-0.002l0.025-0.001l0.075-0.003
	l0.027-0.001l0.053-0.002l0.03-0.001l0.048-0.002l0.032-0.001l0.06-0.002l0.017-0.001l0.078-0.003l0.021-0.001l0.057-0.002
	l0.028-0.001l0.049-0.002l0.033-0.001l0.059-0.002l0.018-0.001l0.076-0.003l0.028-0.001l0.052-0.002l0.03-0.001l0.047-0.002
	l0.034-0.001l0.063-0.002l0.025-0.001l0.064-0.002l0.033-0.001l0.047-0.001l0.032-0.001l0.05-0.001l0.03-0.001l0.077-0.002l0.008,0
	l0.071-0.002l0.024-0.001l0.058-0.001l0.025-0.001l0.053-0.001l0.028-0.001l0.077-0.002l0.015,0l0.063-0.001l0.029-0.001
	l0.052-0.001l0.029-0.001l0.054-0.001l0.025,0l0.079-0.002l0.012,0l0.065-0.001l0.029,0l0.053-0.001l0.028,0l0.055-0.001l0.025,0
	l0.077-0.001l0.019,0l0.059-0.001l0.029,0l0.055-0.001l0.023,0l0.066-0.001l0.015,0l0.08-0.001l0.017,0l0.061-0.001l0.029,0l0.053,0
	l0.027,0l0.056,0l0.024,0l0.076-0.001l0.023,0l0.058,0l0.026,0l0.058,0l0.023,0l0.069,0l0.012,0l0.079,0l0.02,0l0.058,0l0.027,0
	l0.058,0h0.022l0.08,0c11.782,0,21.333-9.551,21.333-21.333S246.45,42.668,234.667,42.668L234.667,42.668z"/>
<g>
</g>
<g>
</g>
<g>
</g>
<g>
</g>
<g>
</g>
<g>
</g>
<g>
</g>
<g>
</g>
<g>
</g>
<g>
</g>
<g>
</g>
<g>
</g>
<g>
</g>
<g>
</g>
<g>
</g>
</svg>
